<?xml version="1.0" encoding="UTF-8"?>
<svg id="Layer_2" data-name="Layer 2" xmlns="http://www.w3.org/2000/svg" xmlns:xlink="http://www.w3.org/1999/xlink" viewBox="0 0 250.68 53.05">
  <defs>
    <style>
      .cls-1 {
        fill: url(#linear-gradient-15);
      }

      .cls-2 {
        fill: url(#linear-gradient-13);
      }

      .cls-3 {
        fill: url(#linear-gradient-2);
      }

      .cls-4 {
        fill: url(#linear-gradient-10);
      }

      .cls-5 {
        fill: url(#linear-gradient-12);
      }

      .cls-6 {
        fill: url(#linear-gradient-4);
      }

      .cls-7 {
        fill: url(#linear-gradient-3);
      }

      .cls-8 {
        fill: url(#linear-gradient-5);
      }

      .cls-9 {
        fill: url(#linear-gradient-22);
      }

      .cls-10 {
        fill: url(#linear-gradient-24);
      }

      .cls-11 {
        fill: url(#linear-gradient-8);
      }

      .cls-12 {
        fill: url(#linear-gradient-14);
      }

      .cls-13 {
        fill: url(#linear-gradient-20);
      }

      .cls-14 {
        fill: url(#linear-gradient-17);
      }

      .cls-15 {
        fill: url(#linear-gradient-7);
      }

      .cls-16 {
        fill: url(#linear-gradient-9);
      }

      .cls-17 {
        fill: url(#linear-gradient-11);
      }

      .cls-18 {
        fill: url(#linear-gradient-19);
      }

      .cls-19 {
        fill: url(#linear-gradient-6);
      }

      .cls-20 {
        fill: url(#linear-gradient-21);
      }

      .cls-21 {
        fill: url(#linear-gradient-16);
      }

      .cls-22 {
        fill: url(#linear-gradient);
      }

      .cls-23 {
        fill: url(#linear-gradient-23);
      }

      .cls-24 {
        fill: url(#linear-gradient-18);
      }
    </style>
    <linearGradient id="linear-gradient" x1="160.21" y1="-1.19" x2="161.26" y2="48.91" gradientUnits="userSpaceOnUse">
      <stop offset="0" stop-color="#ed1c24"/>
      <stop offset=".08" stop-color="#ef341f" stop-opacity=".94"/>
      <stop offset=".22" stop-color="#f47415" stop-opacity=".79"/>
      <stop offset=".41" stop-color="#fddb03" stop-opacity=".55"/>
      <stop offset=".45" stop-color="#fff200" stop-opacity=".5"/>
      <stop offset=".68" stop-color="#f68e10" stop-opacity=".73"/>
      <stop offset=".89" stop-color="#ef3b1e" stop-opacity=".93"/>
      <stop offset="1" stop-color="#ed1c24"/>
    </linearGradient>
    <linearGradient id="linear-gradient-2" x1="189.88" y1="-1.81" x2="190.93" y2="48.29" xlink:href="#linear-gradient"/>
    <linearGradient id="linear-gradient-3" x1="214.26" y1="-2.33" x2="215.31" y2="47.78" xlink:href="#linear-gradient"/>
    <linearGradient id="linear-gradient-4" x1="231.15" y1="-2.68" x2="232.21" y2="47.42" xlink:href="#linear-gradient"/>
    <linearGradient id="linear-gradient-5" x1="91.54" y1=".25" x2="92.6" y2="50.35" xlink:href="#linear-gradient"/>
    <linearGradient id="linear-gradient-6" x1="100.29" y1=".07" x2="101.34" y2="50.17" xlink:href="#linear-gradient"/>
    <linearGradient id="linear-gradient-7" x1="115.39" y1="-.25" x2="116.45" y2="49.85" xlink:href="#linear-gradient"/>
    <linearGradient id="linear-gradient-8" x1="124.03" y1="-.43" x2="125.09" y2="49.67" xlink:href="#linear-gradient"/>
    <linearGradient id="linear-gradient-9" x1="135.37" y1="-.67" x2="136.42" y2="49.43" xlink:href="#linear-gradient"/>
    <linearGradient id="linear-gradient-10" x1="14.82" y1="1.86" x2="15.87" y2="51.96" xlink:href="#linear-gradient"/>
    <linearGradient id="linear-gradient-11" x1="48.35" y1="1.15" x2="49.4" y2="51.26" xlink:href="#linear-gradient"/>
    <linearGradient id="linear-gradient-12" x1="83.96" y1=".41" x2="85.01" y2="50.51" xlink:href="#linear-gradient"/>
    <linearGradient id="linear-gradient-13" x1="119.36" y1="-.33" x2="120.41" y2="49.77" xlink:href="#linear-gradient"/>
    <linearGradient id="linear-gradient-14" x1="164.84" y1="-1.29" x2="165.89" y2="48.81" xlink:href="#linear-gradient"/>
    <linearGradient id="linear-gradient-15" x1="193.56" y1="-1.89" x2="194.61" y2="48.21" xlink:href="#linear-gradient"/>
    <linearGradient id="linear-gradient-16" x1="226.35" y1="-2.58" x2="227.4" y2="47.52" xlink:href="#linear-gradient"/>
    <linearGradient id="linear-gradient-17" x1="68.98" y1=".72" x2="70.04" y2="50.82" xlink:href="#linear-gradient"/>
    <linearGradient id="linear-gradient-18" x1="59.99" y1=".91" x2="61.04" y2="51.01" xlink:href="#linear-gradient"/>
    <linearGradient id="linear-gradient-19" x1="50.28" y1="1.11" x2="51.33" y2="51.22" xlink:href="#linear-gradient"/>
    <linearGradient id="linear-gradient-20" x1="42.15" y1="1.28" x2="43.2" y2="51.39" xlink:href="#linear-gradient"/>
    <linearGradient id="linear-gradient-21" x1="34.02" y1="1.46" x2="35.07" y2="51.56" xlink:href="#linear-gradient"/>
    <linearGradient id="linear-gradient-22" x1="25.89" y1="1.63" x2="26.94" y2="51.73" xlink:href="#linear-gradient"/>
    <linearGradient id="linear-gradient-23" x1="17.76" y1="1.8" x2="18.82" y2="51.9" xlink:href="#linear-gradient"/>
    <linearGradient id="linear-gradient-24" x1="9.64" y1="1.97" x2="10.69" y2="52.07" xlink:href="#linear-gradient"/>
  </defs>
  <g id="_2025" data-name="2025">
    <g id="_Group_4" data-name="&amp;lt;Group&amp;gt;4">
      <g>
        <path class="cls-22" d="M144.66,38.71l9.85-.85c-.35,1.28.45,1.92,2.4,1.92,1.53,0,2.94-.41,4.22-1.22,1.28-.81,2.33-1.93,3.15-3.35.09-.16.2-.37.33-.62-2.38,1.34-5.14,2.01-8.27,2.01-3.3,0-5.67-.62-7.11-1.86-1.44-1.24-1.61-2.82-.5-4.74,1.21-2.1,3.48-3.82,6.79-5.16,3.31-1.33,7.11-2,11.38-2,4.92,0,8.1.93,9.54,2.78,1.44,1.85,1.29,4.3-.46,7.33-1.93,3.34-4.81,6.06-8.63,8.16s-8.32,3.15-13.49,3.15c-3.39,0-5.9-.49-7.52-1.48-1.63-.99-2.19-2.35-1.67-4.07ZM161.38,32.18c1.09,0,2.16-.22,3.23-.65,1.07-.43,1.83-1.04,2.29-1.83.46-.8.45-1.44-.02-1.9-.48-.47-1.29-.7-2.43-.7-1.07,0-2.11.22-3.12.65s-1.77,1.09-2.27,1.96c-.45.77-.44,1.38,0,1.81.45.44,1.22.65,2.31.65Z"/>
        <path class="cls-3" d="M184.36,44.27c-4.4,0-7.32-.99-8.74-2.96s-1.21-4.57.65-7.79c1.9-3.3,4.72-5.9,8.45-7.81,3.73-1.91,7.8-2.86,12.2-2.86s7.57,1.02,8.85,3.05c1.28,2.04,1.01,4.64-.82,7.8-1.86,3.23-4.67,5.8-8.42,7.71-3.75,1.91-7.81,2.86-12.17,2.86ZM187.01,39.86c1.53,0,2.88-.56,4.04-1.67,1.16-1.11,2.29-2.63,3.41-4.56,1.53-2.65,2.19-4.38,1.97-5.19-.22-.81-.91-1.22-2.09-1.22-1.43,0-2.72.54-3.88,1.61-1.16,1.07-2.29,2.55-3.37,4.42-1.47,2.55-2.2,4.29-2.2,5.22,0,.93.71,1.39,2.12,1.39Z"/>
        <path class="cls-7" d="M222.09,23.17l-2.51,4.36-7.66,4.61h-4.22l6.08-4.14h-3.69l2.79-4.83h9.22Z"/>
        <path class="cls-6" d="M213.15,37.94l11.02-1.07c-.09,1.68,1.67,2.51,5.29,2.51,2.82,0,4.47-.43,4.96-1.28.26-.45.13-.79-.37-1.04-.51-.25-1.54-.47-3.11-.66-6-.7-9.58-1.61-10.74-2.74-1.17-1.13-1.31-2.45-.43-3.98,1.13-1.96,3.38-3.59,6.74-4.89,3.36-1.3,7.49-1.95,12.4-1.95,7.43,0,11.36,1.7,11.79,5.1l-10.2,1.6c-.16-1.39-1.71-2.09-4.65-2.09-2.44,0-3.91.43-4.41,1.29-.22.39-.12.69.31.9.43.21,1.38.42,2.86.61,4.06.53,6.9.99,8.5,1.4,1.6.4,2.74,1.1,3.4,2.08.66.98.61,2.14-.16,3.47-1.21,2.1-3.7,3.81-7.44,5.11-3.75,1.3-8.06,1.96-12.92,1.96-8.89,0-13.17-2.11-12.81-6.33Z"/>
      </g>
      <g>
        <path class="cls-8" d="M94.06,32.67l-3.69,6.38h-3.67l3.69-6.38h-2.61l1.16-2.01h8.9l-1.16,2.01h-2.61Z"/>
        <path class="cls-19" d="M98.52,39.18c-1.77,0-2.99-.39-3.66-1.17-.67-.78-.62-1.83.14-3.14.72-1.25,1.86-2.29,3.4-3.11,1.54-.82,3.26-1.23,5.16-1.23,1.75,0,2.96.39,3.62,1.16s.62,1.8-.12,3.09c-.77,1.33-1.94,2.4-3.52,3.2-1.58.8-3.25,1.21-5.01,1.21ZM99.6,37.28c.65,0,1.23-.19,1.74-.57s1.05-1.07,1.63-2.08c.84-1.46.68-2.19-.5-2.19-1.27,0-2.38.83-3.34,2.5-.9,1.56-.74,2.34.48,2.34Z"/>
        <path class="cls-15" d="M117.92,32.67l-3.69,6.38h-3.67l3.69-6.38h-2.61l1.16-2.01h8.9l-1.16,2.01h-2.61Z"/>
        <path class="cls-11" d="M132.55,30.66l-4.85,8.39h-3.87l1.89-3.27h-2.96l-1.89,3.27h-3.87l4.85-8.39h3.87l-1.78,3.09h2.96l1.78-3.09h3.87Z"/>
        <path class="cls-16" d="M139.59,37.05l-1.16,2h-9.49l4.85-8.39h9.49l-1.12,1.94h-5.69l-.7,1.22h4.6l-1.08,1.86h-4.6l-.79,1.37h5.69Z"/>
      </g>
      <g>
        <path class="cls-4" d="M29.85,13.33h-11.9l4.21,7.78h-10.91L0,.32h26.39l2.68,4.95h-15.48l1.83,3.38h11.9l2.53,4.68Z"/>
        <path class="cls-17" d="M54.41,21.43c-5.13,0-9.84-.97-14.13-2.91-4.29-1.94-7.31-4.53-9.07-7.78-1.68-3.11-1.53-5.67.47-7.7,2-2.03,5.74-3.04,11.23-3.04,5.08,0,9.74.95,13.97,2.86,4.23,1.91,7.21,4.46,8.94,7.65,1.79,3.3,1.61,5.94-.54,7.93-2.15,1.99-5.77,2.98-10.87,2.98ZM51.8,16.71c1.89,0,2.99-.47,3.31-1.41.32-.94-.2-2.66-1.55-5.16-1.96-3.61-4.64-5.42-8.04-5.42-3.67,0-4.39,2.06-2.16,6.18,2.1,3.87,4.91,5.8,8.44,5.8Z"/>
        <path class="cls-5" d="M106.05,21.11h-12.42l-9.64-7.95h-3.53l4.3,7.95h-11.2L62.3.32h19.06c4.21,0,7.78.56,10.71,1.68,2.93,1.12,4.9,2.6,5.89,4.44.65,1.2.79,2.26.44,3.17-.36.92-1.65,1.73-3.87,2.43l11.51,9.06ZM78.05,8.71h4.79c1.41,0,2.45-.17,3.12-.5s.83-.83.48-1.48c-.72-1.33-2.52-2-5.38-2h-5.16l2.15,3.97Z"/>
        <path class="cls-2" d="M143.06.32l1.58,20.79h-9.41l-11.32-11.47,1.39,11.47h-9.81L94.54.32h10.54l11.58,11.96-1.5-11.96h8.79l11.91,11.99-1.38-11.99h8.57Z"/>
        <path class="cls-12" d="M171.16,21.11l-4.28-4.1h-9.78l.03,4.1h-9.09V.32h11.85l22.71,20.79h-11.43ZM156.55,12.47h5.9l-6.22-6.03.31,6.03Z"/>
        <path class="cls-1" d="M215.7,21.11h-12.42l-9.64-7.95h-3.53l4.3,7.95h-11.2L171.96.32h19.06c4.21,0,7.78.56,10.71,1.68,2.93,1.12,4.9,2.6,5.89,4.44.65,1.2.79,2.26.44,3.17-.36.92-1.65,1.73-3.87,2.43l11.51,9.06ZM187.7,8.71h4.79c1.41,0,2.45-.17,3.12-.5s.83-.83.48-1.48c-.72-1.33-2.52-2-5.38-2h-5.16l2.15,3.97Z"/>
        <path class="cls-21" d="M218.26,21.11L207,.32h14.12c6.13,0,11.28,1.04,15.45,3.11s6.99,4.47,8.46,7.19c1.68,3.11,1.42,5.63-.8,7.58s-5.94,2.92-11.16,2.92h-14.81ZM226.87,16.32h2.91c1.85,0,3.14-.51,3.86-1.54.72-1.03.6-2.42-.36-4.19-.82-1.51-2.09-2.82-3.82-3.91-1.73-1.1-3.66-1.64-5.8-1.64h-2.91l6.11,11.28Z"/>
      </g>
      <polygon class="cls-14" points="84.59 35.04 76 17.03 55.2 53.05 84.59 35.04"/>
      <polygon class="cls-24" points="50.85 43.64 60.78 26.44 70.57 26.44 60.63 43.64 50.85 43.64"/>
      <polygon class="cls-18" points="42.72 43.64 52.65 26.44 59.27 26.44 49.33 43.64 42.72 43.64"/>
      <polygon class="cls-13" points="34.59 43.64 44.52 26.44 51.13 26.44 41.2 43.64 34.59 43.64"/>
      <polygon class="cls-20" points="26.45 43.64 36.38 26.44 43 26.44 33.07 43.64 26.45 43.64"/>
      <polygon class="cls-9" points="18.32 43.64 28.25 26.44 34.87 26.44 24.94 43.64 18.32 43.64"/>
      <polygon class="cls-23" points="10.19 43.64 20.12 26.44 26.74 26.44 16.8 43.64 10.19 43.64"/>
      <polygon class="cls-10" points="2.06 43.64 11.99 26.44 18.6 26.44 8.67 43.64 2.06 43.64"/>
    </g>
  </g>
</svg>